<svg id="Capa_1" enable-background="new 0 0 512 512" height="512" viewBox="0 0 512 512" width="512" xmlns="http://www.w3.org/2000/svg"><g><path d="m122.231 85.406c-4.142 0-7.5 3.358-7.5 7.5v383.119c0 6.052 4.923 10.975 10.975 10.975h235.005c6.052 0 10.976-4.923 10.976-10.975v-440.05c0-6.052-4.924-10.975-10.976-10.975h-235.005c-6.052 0-10.975 4.923-10.975 10.975v21.931c0 4.142 3.358 7.5 7.5 7.5s7.5-3.358 7.5-7.5v-17.906h226.956v432h-226.956v-379.094c0-4.142-3.358-7.5-7.5-7.5z"/><path d="m159.91 50c-11.126 0-20.179 9.052-20.179 20.179s9.052 20.178 20.179 20.178 20.178-9.052 20.178-20.178-9.052-20.179-20.178-20.179zm0 25.357c-2.855 0-5.179-2.323-5.179-5.178s2.323-5.179 5.179-5.179 5.178 2.323 5.178 5.179-2.323 5.178-5.178 5.178z"/><path d="m202.597 216.487c-.003.295-.25.54-.585.583-1.71.216-3.451.326-5.174.326-11.026 0-21.393-4.294-29.19-12.091l-2.79-2.79c-2.521-2.521-6.28-3.268-9.575-1.903-3.294 1.365-5.423 4.551-5.423 8.117v67.732c0 14.879 12.104 26.983 26.983 26.983h16.358c7.317 0 14.538-1.885 20.92-5.456 6.382 3.571 13.603 5.456 20.92 5.456h69.602c11.383 0 20.649-9.261 20.655-20.644.008-13.643-8.138-25.817-20.751-31.016l-25.025-10.315v-5.461c0-2.67 1.441-5.074 3.762-6.273 15.174-7.843 25.342-22.332 27.717-38.889 14.154-.364 25.557-11.992 25.557-26.232v-10.376c0-5.011-4.077-9.088-9.088-9.088h-15.935v-2.665c0-7.639-6.214-13.853-13.853-13.853h-30.263c-4.142 0-7.5 3.358-7.5 7.5s3.358 7.5 7.5 7.5h29.116v39.724c0 13.969-7.716 26.635-20.138 33.055-6.78 3.505-11.182 10.201-11.798 17.763-1.458-1.027-2.859-2.148-4.199-3.361l-35.004-35c-.465-.466-.97-.878-1.505-1.235-1.143-3.61-1.72-7.371-1.72-11.222v-39.724h10.249c4.142 0 7.5-3.358 7.5-7.5s-3.358-7.5-7.5-7.5h-11.396c-7.639 0-13.853 6.214-13.853 13.853v2.665h-15.936c-5.011 0-9.088 4.077-9.088 9.088v10.376c0 14.24 11.402 25.868 25.556 26.232.358 2.494.897 4.952 1.613 7.365-4.281 5.039-6.651 11.445-6.719 18.276zm118.961-56.337v4.465c0 5.787-4.396 10.566-10.023 11.175v-15.64zm-71.391 81.633c5.056 4.614 10.785 8.258 17.028 10.831 4.903 2.021 28.68 11.821 31.637 13.04 6.97 2.873 11.471 9.601 11.467 17.14-.001 3.116-2.539 5.652-5.655 5.652h-69.602c-4.879 0-9.692-1.29-13.917-3.729l-3.253-1.878c-2.321-1.34-5.179-1.34-7.5 0l-3.253 1.878c-4.226 2.439-9.038 3.729-13.917 3.729h-16.358c-6.607 0-11.983-5.376-11.983-11.983v-54.014c11.702 8.113 25.663 11.192 39.032 9.504 7.735-.978 13.627-7.562 13.704-15.315.021-2.148.502-4.195 1.393-6.017 32.705 32.701 30.983 30.985 31.177 31.162zm-53.021-77.168v-4.465h10.023v15.64c-5.627-.609-10.023-5.388-10.023-11.175z"/><path d="m267.846 335.747-33.771 33.771-15.501-15.502c-1.779-1.779-4.144-2.76-6.66-2.76-2.515 0-4.88.979-6.658 2.758l-15.558 15.558c-3.671 3.671-3.671 9.646 0 13.317l37.72 37.72c3.669 3.67 9.645 3.672 13.316 0l55.99-55.99c3.669-3.672 3.668-9.645-.002-13.315l-15.558-15.558c-3.672-3.671-9.647-3.67-13.318.001zm-33.771 70.308-29.823-29.824 7.662-7.662 15.503 15.503c3.671 3.672 9.646 3.672 13.316 0l33.771-33.771 7.662 7.662z"/><path d="m405.115 173.225c9.458 0 17.154-7.695 17.154-17.154v-63.56c0-9.459-7.695-17.154-17.154-17.154h-8.428v-43.338c0-17.655-14.364-32.019-32.02-32.019h-242.917c-17.655 0-32.019 14.364-32.019 32.019v447.962c0 17.655 14.364 32.019 32.019 32.019h11.697c4.142 0 7.5-3.358 7.5-7.5s-3.358-7.5-7.5-7.5h-11.697c-9.384 0-17.019-7.635-17.019-17.019v-447.962c0-9.384 7.635-17.019 17.019-17.019h242.917c9.385 0 17.02 7.635 17.02 17.019v447.962c0 9.384-7.635 17.019-17.02 17.019h-196.22c-4.142 0-7.5 3.358-7.5 7.5s3.358 7.5 7.5 7.5h196.22c17.656 0 32.02-14.364 32.02-32.019v-147.723h8.428c9.458 0 17.154-7.695 17.154-17.154v-114.725c0-9.458-7.695-17.154-17.154-17.154h-8.428v-10zm0-82.868c1.188 0 2.154.966 2.154 2.154v63.56c0 1.188-.966 2.154-2.154 2.154h-8.428v-67.868zm0 107.868c1.188 0 2.154.966 2.154 2.154v114.726c0 1.188-.966 2.154-2.154 2.154h-8.428v-119.034z"/></g></svg>